<svg xmlns="http://www.w3.org/2000/svg" width="49.173" height="49.173" viewBox="0 0 49.173 49.173"><defs><style>.a{fill:#d9d9d9;}.b{fill:#f7e4ba;}.c{fill:#6b9777;}.d{fill:#ebebeb;}.e{fill:#fbb540;}.f{fill:#f7ba61;}.g{fill:#dc4d41;}.h{fill:#8f563b;}.i{fill:#f26b32;}</style></defs><circle class="a" cx="23.767" cy="23.767" r="23.767" transform="translate(0.82 0.82)"/><circle class="b" cx="15.678" cy="15.678" r="15.678" transform="translate(9.248 9.248)"/><path class="c" d="M45.856,166.736A3.259,3.259,0,0,0,46,168.013a4.614,4.614,0,0,0-.758,8.605,3.243,3.243,0,0,0-.37,1.229,3.541,3.541,0,0,0,3.322,3.739,3.786,3.786,0,0,0,1.62-.22l2.7-7.14-.051-5.839-1.124-4.249a3.787,3.787,0,0,0-1.557-.5A3.54,3.54,0,0,0,45.856,166.736Z" transform="translate(-38.533 -147.898)"/><path class="d" d="M247.864,97.145a3.268,3.268,0,0,0-6.138-1.571,8.224,8.224,0,1,0,4.04,4.621A3.272,3.272,0,0,0,247.864,97.145Z" transform="translate(-207.706 -84.852)"/><circle class="e" cx="3.688" cy="3.688" r="3.688" transform="translate(25.816 14.342)"/><circle class="f" cx="8.195" cy="8.195" r="8.195" transform="translate(9.015 25.406)"/><g transform="translate(9.835 12.85)"><circle class="g" cx="3.278" cy="3.278" r="3.278" transform="translate(0 6.819)"/><circle class="g" cx="3.278" cy="3.278" r="3.278" transform="translate(0.5)"/></g><g transform="translate(24.418 22.127)"><path class="h" d="M425.831,236.262a.82.82,0,0,1-.82-.819.726.726,0,0,1,.006-.094l.486-4.227a.82.82,0,0,1,1.311-.559l3.77,2.868a.82.82,0,0,1-.246,1.432l-4.257,1.36A.792.792,0,0,1,425.831,236.262Z" transform="translate(-408.611 -230.395)"/><path class="h" d="M257.417,429.483a.819.819,0,0,1-.684-.368l-2.35-3.548a.82.82,0,0,1,.643-1.271l4.731-.233a.82.82,0,0,1,.733,1.256l-2.377,3.781a.82.82,0,0,1-.684.383Z" transform="translate(-254.247 -405.463)"/></g><g transform="translate(12.293 29.504)"><rect class="i" width="1.639" height="1.639" transform="translate(6.556)"/><rect class="i" width="1.639" height="1.639" transform="translate(9.015 2.459)"/><rect class="i" width="1.639" height="1.639" transform="translate(6.556 5.737)"/><rect class="i" width="1.639" height="1.639" transform="translate(0 5.737)"/><rect class="i" width="1.639" height="1.639" transform="translate(1.639)"/><rect class="i" width="1.639" height="1.639" transform="translate(3.278 8.195)"/><rect class="i" width="1.639" height="1.639" transform="translate(3.278 3.278)"/></g><path class="h" d="M300.485,289.218a2.9,2.9,0,0,1-2.237-1.047l-.006-.007a2.95,2.95,0,0,1,.367-4.156c.075-.063.153-.122.234-.178l1.866-1.523a18.724,18.724,0,0,0,4.967-6.229l.843-1.7a3.048,3.048,0,1,1,5.589,2.436h0l-1.124,2.371a20.552,20.552,0,0,1-6.38,7.731l-2.5,1.833A3.094,3.094,0,0,1,300.485,289.218Z" transform="translate(-268.976 -246.375)"/><path d="M24.587,0A24.587,24.587,0,1,0,49.173,24.587,24.586,24.586,0,0,0,24.587,0Zm0,47.534A22.947,22.947,0,1,1,47.534,24.587,22.947,22.947,0,0,1,24.587,47.534Z"/><path d="M264.775,140.8a4.507,4.507,0,1,0,4.507,4.507A4.507,4.507,0,0,0,264.775,140.8Zm0,7.376a2.868,2.868,0,1,1,2.868-2.868A2.868,2.868,0,0,1,264.775,148.176Z" transform="translate(-235.271 -127.277)"/><path d="M71.842,81.712a4.086,4.086,0,0,0-7.244-2.6,8.915,8.915,0,0,0-1.332-.421.764.764,0,0,0-.07-.055,17.223,17.223,0,0,0-19.5,2.8.836.836,0,0,0-.077.108A4.1,4.1,0,0,0,40.535,84.5a4.233,4.233,0,0,0-3.161,3.688,3.936,3.936,0,0,0,.016.839,5.4,5.4,0,0,0-.833,9.449,4.046,4.046,0,0,0-.164.82,4.26,4.26,0,0,0,2.7,4.281,9,9,0,0,0,13.294,7.361,17.437,17.437,0,0,0,2.9.271.809.809,0,0,0,.132.443l2.35,3.548a.819.819,0,0,0,.684.368h.01a.82.82,0,0,0,.684-.383l2.009-3.19a2.887,2.887,0,0,0,1.22.268,3.088,3.088,0,0,0,1.617-.466l2.5-1.837a20.553,20.553,0,0,0,6.38-7.731L74,99.858a2.96,2.96,0,0,0-.232-2.807l3.245-1.038a.819.819,0,0,0,.246-1.433l-3.77-2.868a.818.818,0,0,0-.82-.1.848.848,0,0,0-.164.1,17.1,17.1,0,0,0-2.377-6.678A4.054,4.054,0,0,0,71.842,81.712ZM44.476,83.088a2.459,2.459,0,1,1-2.459,2.459A2.458,2.458,0,0,1,44.476,83.088Zm.774,11.376c-.23.076-.46.155-.684.246-.048.02-.093.045-.141.066a2.459,2.459,0,1,1,.825-.315ZM38.024,99.44a2.479,2.479,0,0,1,.279-.922l.383-.727-.728-.38a3.8,3.8,0,0,1,.626-7.1l.784-.246-.251-.783A2.415,2.415,0,0,1,39,88.33a2.555,2.555,0,0,1,1.448-2.049A4.086,4.086,0,0,0,42,88.792c-.021.011-.046.018-.067.03A4.092,4.092,0,0,0,42.3,96.1a8.993,8.993,0,0,0-3.145,5.662A2.578,2.578,0,0,1,38.024,99.44Zm2.675,3.581a7.364,7.364,0,1,1,0,.023Zm17.736,10.216-.853-1.29,1.721-.082ZM72.5,99.186l-1.111,2.341a18.911,18.911,0,0,1-5.87,7.112l-2.441,1.8A1.316,1.316,0,0,1,61.55,108.3a1.362,1.362,0,0,1,.118-.088l1.967-1.6a20.351,20.351,0,0,0,5.4-6.769l.861-1.737a1.41,1.41,0,0,1,2.6.019A1.38,1.38,0,0,1,72.5,99.186Zm1.138-5.3,1.371,1.042-1.547.492Zm-2.7,1.747A2.985,2.985,0,0,0,68.4,97.421l-.838,1.7a18.724,18.724,0,0,1-4.967,6.229l-1.866,1.524a2.95,2.95,0,0,0-1.259,2.011c-.008.056,0,.112-.007.164a15.753,15.753,0,0,1-5.174.482,9,9,0,0,0-6.218-15.524c-.122,0-.246.013-.364.018a4.078,4.078,0,0,0-1.247-4.917,4.069,4.069,0,0,0-.574-7.392,15.5,15.5,0,0,1,9.56-3.281,15.692,15.692,0,0,1,3.278.349A9.011,9.011,0,1,0,70.1,88.737a15.439,15.439,0,0,1,.834,6.9ZM68.624,84l-.738.286.259.747a7.389,7.389,0,1,1-3.636-4.16l.706.358.383-.694A2.451,2.451,0,1,1,68.624,84Z" transform="translate(-30.865 -69.419)"/><rect width="1.639" height="1.639" transform="translate(18.85 29.504)"/><rect width="1.639" height="1.639" transform="translate(21.308 31.962)"/><rect width="1.639" height="1.639" transform="translate(18.85 35.241)"/><rect width="1.639" height="1.639" transform="translate(12.293 35.241)"/><rect width="1.639" height="1.639" transform="translate(13.932 29.504)"/><rect width="1.639" height="1.639" transform="translate(15.571 37.699)"/><rect width="1.639" height="1.639" transform="translate(15.571 32.782)"/></svg>