<svg xmlns="http://www.w3.org/2000/svg" width="60.415" height="49.453" viewBox="0 0 60.415 49.453"><defs><style>.a{opacity:0.946;}.b{fill:#8c5549;}.c{opacity:0.15;}.d{fill:#202020;}.e{fill:#fff1ce;}.f{fill:#dce0e2;}.g{fill:#a4a4a5;}</style></defs><g class="a"><path class="b" d="M31.017,0A13.931,13.931,0,0,0,18.2,8.471,13.928,13.928,0,0,0,0,18.538H44.161A13.929,13.929,0,0,0,31.017,0Z" transform="translate(6.025 18.798)"/><g class="c" transform="translate(11.858 26.049)"><path class="d" d="M15.378.116A13.93,13.93,0,0,0,0,10.854H3.593A13.938,13.938,0,0,1,15.378.116Z" transform="translate(0 0)"/></g><path class="e" d="M1.939,9.269H8.487a5.213,5.213,0,1,0-6.548,0Z" transform="translate(34.448 27.563)"/><path class="f" d="M58.259,3.074a2.908,2.908,0,0,1-2.707,3.074H2.706A2.908,2.908,0,0,1,0,3.074H0A2.908,2.908,0,0,1,2.706,0H55.553a2.908,2.908,0,0,1,2.707,3.074Z" transform="translate(1.078 35.904)"/><g class="c" transform="translate(1.078 35.904)"><path class="d" d="M3.514,3.074A3.074,3.074,0,0,1,6.588,0H3.074a3.074,3.074,0,0,0,0,6.148H6.588A3.074,3.074,0,0,1,3.514,3.074Z" transform="translate(0 0)"/></g><path class="g" d="M0,0,2.361,7.432H46.143L48.5,0Z" transform="translate(5.955 40.944)"/><g class="c" transform="translate(5.955 40.944)"><path class="d" d="M0,0,2.747,7.432h3.6L3.6,0Z" transform="translate(0 0)"/></g><path class="e" d="M3.676,1.838A1.838,1.838,0,1,1,1.839,0,1.838,1.838,0,0,1,3.676,1.838Z" transform="translate(37.98 30.995)"/><g transform="translate(0 0)"><path class="d" d="M56.744,18.538h-4.1a16.842,16.842,0,0,0,.375-3.532C53.018,6.732,47.066,0,39.751,0c-5.037,0-9.6,3.2-11.843,8.237a11.808,11.808,0,0,0-3.57-.553A12.372,12.372,0,0,0,16,11.022a15.346,15.346,0,0,0-4.405,7.516H3.671A3.938,3.938,0,0,0,0,22.69a3.938,3.938,0,0,0,3.671,4.152H4.6l2.2,6.727a.966.966,0,0,0,.894.7H13.21a1.086,1.086,0,0,0,0-2.156H8.357L6.633,26.842H53.781l-1.724,5.276H16.519a1.086,1.086,0,0,0,0,2.156h36.2a.966.966,0,0,0,.894-.7l2.2-6.727h.93a3.938,3.938,0,0,0,3.671-4.152A3.938,3.938,0,0,0,56.744,18.538ZM24.337,9.84a10.156,10.156,0,0,1,3.766.726A.92.92,0,0,0,29.3,9.972c1.79-4.748,5.894-7.816,10.456-7.816,6.265,0,11.361,5.765,11.361,12.85a14.394,14.394,0,0,1-.437,3.532H44.79a6.934,6.934,0,0,0,.662-2.978c0-3.469-2.5-6.291-5.562-6.291s-5.562,2.822-5.562,6.291a6.935,6.935,0,0,0,.662,2.978h-21.4C15.137,13.426,19.48,9.84,24.337,9.84Zm11.9,5.72a3.922,3.922,0,0,1,3.656-4.135,3.922,3.922,0,0,1,3.656,4.135,4.393,4.393,0,0,1-1.121,2.978H37.354A4.4,4.4,0,0,1,36.233,15.56Zm20.51,9.126H3.671a2.011,2.011,0,0,1,0-3.993H56.744a2.011,2.011,0,0,1,0,3.993Z" transform="translate(0 15.18)"/><path class="d" d="M2.917,0A2.916,2.916,0,1,0,5.832,2.916,2.92,2.92,0,0,0,2.917,0Zm0,3.676a.76.76,0,1,1,.76-.76A.762.762,0,0,1,2.917,3.676Z" transform="translate(36.855 29.868)"/><path class="d" d="M10.106,2.156a8.1,8.1,0,0,1,4.549,1.389,1.078,1.078,0,0,0,1.207-1.786A10.3,10.3,0,0,0,.022,8.219a1.078,1.078,0,1,0,2.112.432A8.16,8.16,0,0,1,10.106,2.156Z" transform="translate(29.558 23.036)"/><path class="d" d="M9.744.186A10.309,10.309,0,0,0,.293,3.234,1.078,1.078,0,0,0,1.862,4.713,8.063,8.063,0,0,1,7.785,2.156,8.214,8.214,0,0,1,9.336,2.3,1.078,1.078,0,0,0,9.744.186Z" transform="translate(16.996 29.583)"/><path class="d" d="M3.294,14.495A5.439,5.439,0,0,1,2.079,16.57a1.078,1.078,0,0,0,1.489,1.559,7.564,7.564,0,0,0,1.753-2.9A6.944,6.944,0,0,0,3.643,8.3C.546,4.679,3.206,2.174,3.525,1.9A1.078,1.078,0,0,0,2.127.256,6.588,6.588,0,0,0,.019,4.442,7.165,7.165,0,0,0,2,9.7,4.919,4.919,0,0,1,3.294,14.495Z" transform="translate(16.944 7.755)"/><path class="d" d="M3.294,14.494A5.441,5.441,0,0,1,2.079,16.57a1.078,1.078,0,0,0,1.489,1.559,7.564,7.564,0,0,0,1.753-2.9A6.944,6.944,0,0,0,3.643,8.3C.546,4.679,3.206,2.174,3.525,1.9A1.078,1.078,0,0,0,2.127.256,6.587,6.587,0,0,0,.019,4.442,7.164,7.164,0,0,0,2,9.7,4.918,4.918,0,0,1,3.294,14.494Z" transform="translate(25.042 6.128)"/><path class="d" d="M3.294,14.494A5.441,5.441,0,0,1,2.079,16.57a1.078,1.078,0,0,0,1.489,1.559,7.564,7.564,0,0,0,1.753-2.9A6.944,6.944,0,0,0,3.643,8.3C.546,4.679,3.206,2.174,3.525,1.9A1.078,1.078,0,0,0,2.127.256,6.587,6.587,0,0,0,.019,4.442,7.165,7.165,0,0,0,2,9.7,4.918,4.918,0,0,1,3.294,14.494Z" transform="translate(33.015 0)"/><path class="d" d="M3.294,14.494A5.44,5.44,0,0,1,2.079,16.57a1.078,1.078,0,0,0,1.489,1.559,7.563,7.563,0,0,0,1.753-2.9A6.944,6.944,0,0,0,3.643,8.3C.546,4.679,3.206,2.174,3.525,1.9A1.078,1.078,0,0,0,2.127.256,6.587,6.587,0,0,0,.019,4.442,7.165,7.165,0,0,0,2,9.7,4.918,4.918,0,0,1,3.294,14.494Z" transform="translate(41.239 1.99)"/></g></g></svg>