<svg xmlns="http://www.w3.org/2000/svg" width="37.661" height="49.118" viewBox="0 0 37.661 49.118"><defs><style>.a{fill:#87cee9;}.b{fill:#ffd782;}.c{fill:#394d5c;}.d{fill:#d3843d;}.e{fill:#aa6329;}.f{fill:#aabece;}.g{fill:#f4f4e6;}</style></defs><g transform="translate(-8.996 -2)"><path class="a" d="M24.736,57.01h-13.1L10,39H26.373Z" transform="translate(-0.182 -6.71)"/><path class="b" d="M10.364,43,11.7,57.736H24.8L26.141,43Z" transform="translate(-0.248 -7.436)"/><path class="c" d="M40,3h6.549V7.912H40Z" transform="translate(-5.623 -0.181)"/><path class="d" d="M45.461,18.005V9H38.912v9.005L34,23.736V51.569H50.373V23.736Z" transform="translate(-4.535 -1.27)"/><path class="e" d="M40,12h4.093v1.637H40Z" transform="translate(-5.623 -1.814)"/><path class="e" d="M40,16h2.456v1.637H40Z" transform="translate(-5.623 -2.539)"/><path class="c" d="M34,31H45.461V49.01H34Z" transform="translate(-4.535 -5.259)"/><g transform="translate(29.465 21.647)"><path class="e" d="M34,56h9.824v1.637H34Z" transform="translate(-34 -31.441)"/><path class="e" d="M48,56h1.637v1.637H48Z" transform="translate(-36.539 -31.441)"/><path class="e" d="M43,26h9.005v1.637H43Z" transform="translate(-35.632 -26)"/><path class="e" d="M34,26h4.093v1.637H34Z" transform="translate(-34 -26)"/></g><path class="a" d="M11.636,57l.3,3.275h13.1L25.33,57Z" transform="translate(-0.479 -9.975)"/><path class="f" d="M15,51h3.275v3.275H15Z" transform="translate(-1.089 -8.887)"/><path class="f" d="M0,0H3.473V3.473H0Z" transform="translate(17.999 40.474) rotate(-45)"/><path class="b" d="M38,35h4.912v4.912H38Z" transform="translate(-5.26 -5.985)"/><path class="g" d="M38,44h4.912v1.637H38Z" transform="translate(-5.26 -7.617)"/><path class="g" d="M37,48h6.549v1.637H37Z" transform="translate(-5.079 -8.343)"/><path d="M46.1,2.819A.819.819,0,0,0,45.28,2H38.73a.819.819,0,0,0-.819.819V16.433l-4.715,5.5a.819.819,0,0,0-.2.533V50.3a.819.819,0,0,0,.819.819H50.191a.819.819,0,0,0,.819-.819V22.466a.819.819,0,0,0-.2-.533l-4.715-5.5Zm-6.549.819h4.912V6.912H39.549ZM34.637,26.559h9.824V42.932H34.637Zm13.774-4.912H41.186v1.637h8.186v26.2H34.637V47.844h9.005V46.207H34.637V44.569H45.28a.819.819,0,0,0,.819-.819V25.741a.819.819,0,0,0-.819-.819H34.637V23.285h3.275V21.647H35.6l3.753-4.379a.819.819,0,0,0,.2-.533V15.1h1.637V13.461H39.549V11.824h3.275V10.186H39.549V8.549h4.912v8.186a.819.819,0,0,0,.2.533Z" transform="translate(-4.353)"/><path d="M48,56h1.637v1.637H48Z" transform="translate(-7.074 -9.793)"/><path d="M21.7,51.309a.819.819,0,0,0,1.158,0l2.456-2.456a.819.819,0,0,0,0-1.158L22.853,45.24a.819.819,0,0,0-1.158,0L19.24,47.7a.819.819,0,0,0,0,1.158Zm.579-4.333,1.3,1.3-1.3,1.3-1.3-1.3Z" transform="translate(-1.814 -7.798)"/><path d="M26.795,38.267a.819.819,0,0,0-.6-.267H9.818A.819.819,0,0,0,9,38.892l1.708,18.755H25.3l1.709-18.755A.819.819,0,0,0,26.795,38.267ZM23.806,56.01H12.2l-.149-1.637h11.9ZM14.73,51.1V49.461h1.637V51.1ZM24.1,52.736H17.186A.819.819,0,0,0,18,51.917V48.642a.819.819,0,0,0-.819-.819H13.911a.819.819,0,0,0-.819.819v3.275a.819.819,0,0,0,.819.819H11.9l-.893-9.824H25Zm1.041-11.461H10.863l-.145-1.637H25.3Z" transform="translate(0 -6.529)"/><path d="M37,40.549h6.549V34H37Zm1.637-4.912h3.275v3.275H38.637Z" transform="translate(-5.079 -5.803)"/><path d="M38,44h4.912v1.637H38Z" transform="translate(-5.26 -7.617)"/><path d="M37,48h6.549v1.637H37Z" transform="translate(-5.079 -8.343)"/></g></svg>