<svg xmlns="http://www.w3.org/2000/svg" width="41.184" height="49.173" viewBox="0 0 41.184 49.173"><defs><style>.a{fill:#d8d6d4;}.b{fill:#e88c38;}.c{fill:#d38231;}.d{fill:#fff;}.e{fill:#e2e2e2;}.f{fill:#c9c9c9;}</style></defs><g transform="translate(0 0.001)"><g transform="translate(0.729 3.902)"><path class="a" d="M12.278,43.715H9.131a1.541,1.541,0,1,1,0-3.082h3.147a1.541,1.541,0,1,1,0,3.082Zm0,0" transform="translate(-7.59 -40.633)"/><path class="a" d="M12.278,123.445H9.131a1.541,1.541,0,1,1,0-3.082h3.147a1.541,1.541,0,1,1,0,3.082Zm0,0" transform="translate(-7.59 -112.706)"/><path class="a" d="M12.278,203.176H9.131a1.541,1.541,0,1,1,0-3.082h3.147a1.541,1.541,0,1,1,0,3.082Zm0,0" transform="translate(-7.59 -184.779)"/><path class="a" d="M12.278,282.9H9.131a1.541,1.541,0,1,1,0-3.082h3.147a1.541,1.541,0,1,1,0,3.082Zm0,0" transform="translate(-7.59 -256.848)"/><path class="a" d="M12.278,362.633H9.131a1.541,1.541,0,1,1,0-3.082h3.147a1.541,1.541,0,1,1,0,3.082Zm0,0" transform="translate(-7.59 -328.922)"/><path class="a" d="M12.278,442.363H9.131a1.541,1.541,0,1,1,0-3.082h3.147a1.541,1.541,0,1,1,0,3.082Zm0,0" transform="translate(-7.59 -400.994)"/></g><path class="b" d="M73.95,55.3H39.429A1.128,1.128,0,0,1,38.3,54.177V8.717A1.128,1.128,0,0,1,39.429,7.59H73.95a1.127,1.127,0,0,1,1.127,1.127v45.46A1.127,1.127,0,0,1,73.95,55.3Zm0,0" transform="translate(-34.622 -6.861)"/><path class="c" d="M367.34,7.589h-4.477V55.3h4.477a1.127,1.127,0,0,0,1.127-1.127V8.717a1.127,1.127,0,0,0-1.127-1.127Zm0,0" transform="translate(-328.013 -6.861)"/><path class="d" d="M215.951,85.737h-2.674l-.268-2.559a.831.831,0,0,1,.826-.917h1.557a.831.831,0,0,1,.826.917Zm0,0" transform="translate(-192.547 -74.362)"/><path class="e" d="M143.729,123H123.274v-.869a10.227,10.227,0,1,1,20.455,0Zm0,0" transform="translate(-111.435 -101.156)"/><path class="f" d="M203.385,111.9a10.233,10.233,0,0,0-2.8.389,10.232,10.232,0,0,1,7.425,9.839V123h5.605v-.869A10.228,10.228,0,0,0,203.385,111.9Zm0,0" transform="translate(-181.318 -101.155)"/><path class="a" d="M127.965,219.719H104.672a.406.406,0,0,0-.406.406v1.5a.406.406,0,0,0,.406.406h23.293a.406.406,0,0,0,.406-.406v-1.5A.406.406,0,0,0,127.965,219.719Zm0,0" transform="translate(-94.252 -198.618)"/><path d="M108.769,342.681a.41.41,0,0,1-.38.224.4.4,0,0,1-.371-.224l-.993-1.865V344.6c0,.233-.285.354-.561.354s-.561-.121-.561-.354v-5.4a.515.515,0,0,1,.561-.561c.406,0,.587.086.872.6l1.062,1.934,1.062-1.934c.285-.509.475-.6.881-.6a.515.515,0,0,1,.561.561v5.4c0,.233-.285.354-.561.354s-.561-.121-.561-.354v-3.712Zm0,0" transform="translate(-95.731 -306.118)"/><path d="M179.919,341.347h1.312c.224,0,.354.216.354.449a.391.391,0,0,1-.354.432h-1.312v1.735h2.443c.225,0,.354.233.354.5,0,.233-.112.484-.354.484h-3.073c-.25,0-.492-.121-.492-.354v-5.6c0-.233.242-.354.492-.354h3.073c.242,0,.354.251.354.484,0,.268-.129.5-.354.5h-2.443Zm0,0" transform="translate(-161.625 -306.114)"/><path d="M239.483,344.594l-1.856-3.471v3.471c0,.233-.285.354-.561.354s-.561-.121-.561-.354v-5.6c0-.242.276-.354.561-.354.406,0,.57.086.838.6l1.666,3.22v-3.471c0-.242.276-.345.561-.345s.561.1.561.345v5.612c0,.233-.285.354-.561.354A.674.674,0,0,1,239.483,344.594Zm0,0" transform="translate(-213.79 -306.114)"/><path d="M303.705,338.985c0-.242.276-.345.561-.345s.561.1.561.345v4.04a2.074,2.074,0,0,1-4.144,0v-4.04c0-.242.276-.345.561-.345s.561.1.561.345v4.04a.951.951,0,1,0,1.9,0v-4.04Zm0,0" transform="translate(-271.805 -306.118)"/><path d="M309.767,422.148h-4.1a.729.729,0,1,0,0,1.458h4.1a.729.729,0,0,0,0-1.458Zm0,0" transform="translate(-275.648 -381.605)"/><path d="M114.015,422.148H97.405a.729.729,0,0,0,0,1.458h16.609a.729.729,0,0,0,0-1.458Zm0,0" transform="translate(-87.391 -381.605)"/><path d="M121.511,306.242H97.405a.729.729,0,1,0,0,1.458h24.106a.729.729,0,1,0,0-1.458Zm0,0" transform="translate(-87.391 -276.831)"/><path d="M121.1,87.87H120.4a10.978,10.978,0,0,0-8.75-10.135l.141-1.345a1.56,1.56,0,0,0-1.551-1.722h-1.557a1.559,1.559,0,0,0-1.551,1.722l.141,1.345a10.977,10.977,0,0,0-8.75,10.135H97.81A1.136,1.136,0,0,0,96.676,89v1.5a1.136,1.136,0,0,0,1.135,1.135H121.1a1.136,1.136,0,0,0,1.135-1.135V89A1.136,1.136,0,0,0,121.1,87.87ZM108.6,76.16a.1.1,0,0,1,.076-.033h1.557a.1.1,0,0,1,.076.033.1.1,0,0,1,.026.079l-.136,1.3c-.246-.017-.494-.026-.744-.026s-.5.009-.744.026l-.137-1.3A.1.1,0,0,1,108.6,76.16Zm12.178,14.026H98.134v-.858h3.072a.729.729,0,1,0,0-1.458H99.979a9.5,9.5,0,0,1,18.957,0H104.6a.729.729,0,1,0,0,1.458h16.183Zm0,0" transform="translate(-87.391 -67.498)"/><path d="M39.327,0H4.806A1.859,1.859,0,0,0,2.95,1.856V3.172H2.27a2.27,2.27,0,0,0,0,4.54h.68V10.83H2.27a2.27,2.27,0,0,0,0,4.54h.68v3.118H2.27a2.27,2.27,0,0,0,0,4.54h.68v3.118H2.27a2.27,2.27,0,0,0,0,4.54h.68V33.8H2.27a2.27,2.27,0,0,0,0,4.54h.68v3.118H2.27a2.27,2.27,0,0,0,0,4.54h.68v1.317a1.859,1.859,0,0,0,1.856,1.856H39.327a1.859,1.859,0,0,0,1.857-1.856V1.856A1.859,1.859,0,0,0,39.327,0ZM2.95,6.255H2.27a.812.812,0,0,1,0-1.624h.68Zm0,7.657H2.27a.812.812,0,0,1,0-1.624h.68Zm0,7.657H2.27a.812.812,0,0,1,0-1.624h.68Zm0,7.657H2.27a.812.812,0,0,1,0-1.624h.68Zm0,7.657H2.27a.812.812,0,1,1,0-1.624h.68Zm0,7.657H2.27a.812.812,0,1,1,0-1.624h.68Zm36.776,2.775a.4.4,0,0,1-.4.4H4.806a.4.4,0,0,1-.4-.4V1.856a.4.4,0,0,1,.4-.4H39.327a.4.4,0,0,1,.4.4Zm0,0" transform="translate(0)"/></g></svg>