<svg xmlns="http://www.w3.org/2000/svg" width="49.406" height="49.173" viewBox="0 0 49.406 49.173"><defs><style>.a{opacity:0.989;}.b{fill:#d19e6d;}.c{fill:#d5cec2;}.d{fill:#eeebe7;}.e{fill:#e3c5a7;}</style></defs><g class="a"><g transform="translate(16.206 1.547)"><path class="b" d="M14.5,0,0,14.5l2.719,2.719L19.94,0Z"/></g><g transform="translate(24.028 1.547)"><path class="b" d="M14.5,0,0,14.5l2.719,2.719L19.94,0Z"/></g><g transform="translate(24.934 16.394)"><path class="c" d="M1.015,15.411A5.471,5.471,0,0,1,1.6,8.368L9.97,0l8.368,8.368a5.471,5.471,0,0,1,.683,6.9Z"/></g><g transform="translate(26.499 16.6)"><path class="d" d="M14.971,5l-5-5L1.6,8.368A5.47,5.47,0,0,0,0,12.236c0,.137.022.271.032.407.292.015.579.046.875.046A16.953,16.953,0,0,0,14.971,5Z"/></g><g transform="translate(14.733 16.394)"><path class="c" d="M1.015,15.411A5.471,5.471,0,0,1,1.6,8.368L9.97,0l8.368,8.368a5.471,5.471,0,0,1,.683,6.9Z"/></g><g transform="translate(15.142 16.6)"><path class="d" d="M14.971,5l-5-5L1.6,8.368A5.47,5.47,0,0,0,0,12.236c0,.137.022.271.032.407.292.015.579.046.875.046A16.953,16.953,0,0,0,14.971,5Z" transform="translate(0)"/></g><g transform="translate(4.532 16.394)"><path class="c" d="M1.015,15.411A5.471,5.471,0,0,1,1.6,8.368L9.97,0l8.368,8.368a5.471,5.471,0,0,1,.683,6.9Z"/></g><g transform="translate(4.532 16.6)"><path class="d" d="M14.971,5l-5-5L1.6,8.368A5.47,5.47,0,0,0,0,12.236c0,.137.022.271.032.407.292.015.579.046.875.046A16.953,16.953,0,0,0,14.971,5Z"/></g><g transform="translate(2.719 30.388)"><path class="b" d="M0,0H43.968V5.438H0Z"/></g><g transform="translate(2.719 30.388)"><path class="e" d="M37.561,0H0V5.438H33.64A32.644,32.644,0,0,0,37.561,0Z"/></g><g transform="translate(0.906 33.765)"><path class="b" d="M0,0H47.594V14.5H0Z"/></g><g transform="translate(0.906 33.765)"><path class="e" d="M0,0V10.78a37.271,37.271,0,0,0,8.611,1A35.817,35.817,0,0,0,35.453,0Z"/></g><g transform="translate(0 32.858)"><path d="M48.61,16.315H.8a.856.856,0,0,1-.8-.906V.906A.856.856,0,0,1,.8,0H48.61a.856.856,0,0,1,.8.906v14.5A.856.856,0,0,1,48.61,16.315ZM1.594,14.5H47.813V1.813H1.594Z"/></g><g transform="translate(1.813 29.52)"><path d="M45.781,6.345H44.2V1.813H1.579V6.345H0V.906A.853.853,0,0,1,.789,0h44.2a.853.853,0,0,1,.789.906Z"/></g><g transform="translate(9.064 33.765)"><path d="M0,0H1.813V14.5H0Z"/></g><g transform="translate(7.251 37.842)"><path d="M0,0H5.438V1.813H0Z"/></g><g transform="translate(7.251 40.109)"><path d="M0,0H5.438V1.813H0Z"/></g><g transform="translate(7.251 43.735)"><path d="M0,0H5.438V1.813H0Z"/></g><g transform="translate(16.957 15.537)"><path d="M17.244,16.68l-1.508-1.005a4.565,4.565,0,0,0-.57-5.76L7.439,2.188,1.282,8.345,0,7.064,6.8.266a.905.905,0,0,1,1.282,0l8.368,8.368a6.376,6.376,0,0,1,.8,8.047Z"/></g><g transform="translate(27.466 15.537)"><path d="M17.244,16.68l-1.508-1.005a4.565,4.565,0,0,0-.57-5.76L7.439,2.188,1.282,8.345,0,7.064,6.8.266a.905.905,0,0,1,1.282,0l8.368,8.368a6.376,6.376,0,0,1,.8,8.047Z"/></g><g transform="translate(3.626 15.524)"><path d="M1.184,16.843a6.377,6.377,0,0,1,.684-8.21L10.236.266a.905.905,0,0,1,1.282,0l8.368,8.368a6.376,6.376,0,0,1,.8,8.047l-1.508-1.005a4.565,4.565,0,0,0-.57-5.76L10.877,2.188,3.15,9.915a4.565,4.565,0,0,0-.489,5.877Z"/></g><g transform="translate(15.211)"><path d="M3.626,19.675a.9.9,0,0,1-.641-.266L.266,16.69a.905.905,0,0,1,0-1.282L15.674,0l1.282,1.282L2.188,16.049l1.438,1.438L21.112,0l1.282,1.282L4.267,19.409A.9.9,0,0,1,3.626,19.675Z"/></g><g transform="translate(23.121)"><path d="M3.626,19.675a.9.9,0,0,1-.641-.266L.266,16.69a.905.905,0,0,1,0-1.282L15.674,0l1.282,1.282L2.188,16.049l1.438,1.438L21.112,0l1.282,1.282L4.267,19.409A.9.9,0,0,1,3.626,19.675Z"/></g></g></svg>